<svg width="40" height="40" viewBox="0 0 40 40" fill="none" xmlns="http://www.w3.org/2000/svg">
<path d="M9.62577 14.0084C9.62529 14.0084 9.62493 14.0084 9.62457 14.0084H1.78576C1.24488 14.008 0.806262 14.4552 0.805904 15.0069C0.805904 15.0074 0.805904 15.0077 0.805904 15.0081V39.0003C0.805545 39.5521 1.2438 39.9996 1.78456 40C1.78504 40 1.7854 40 1.78576 40H9.62457C10.1655 40.0004 10.6041 39.5532 10.6044 39.0014C10.6044 39.0011 10.6044 39.0007 10.6044 39.0003V15.0081C10.6048 14.4563 10.1665 14.0088 9.62577 14.0084ZM8.64472 38.0006H2.76561V16.0078H8.64472V38.0006ZM30.2015 14.0084C28.0755 14.0085 26.009 14.7244 24.3224 16.0449V15.0081C24.3227 14.4563 23.8845 14.0088 23.3437 14.0084C23.3432 14.0084 23.3429 14.0084 23.3425 14.0084H15.5037C14.9628 14.008 14.5242 14.4552 14.5238 15.0069C14.5238 15.0074 14.5238 15.0077 14.5238 15.0081V39.0003C14.5235 39.5521 14.9617 39.9996 15.5026 40C15.503 40 15.5033 40 15.5037 40H23.3425C23.8834 40.0004 24.322 39.5532 24.3224 39.0014C24.3224 39.0011 24.3224 39.0007 24.3224 39.0003V28.0039C24.3224 26.3476 25.6384 25.0049 27.2619 25.0049C28.8854 25.0049 30.2015 26.3476 30.2015 28.0039V39.0003C30.2011 39.5521 30.6394 39.9996 31.1803 40C31.1806 40 31.181 40 31.1813 40H39.0201C39.561 40.0004 39.9996 39.5532 40 39.0014C40 39.0011 40 39.0007 40 39.0003V24.0052C39.9937 18.4868 35.6104 14.0149 30.2015 14.0084ZM38.0403 38.0006H32.1612V28.0039C32.1612 25.2433 29.9678 23.0055 27.2619 23.0055C24.5561 23.0055 22.3627 25.2433 22.3627 28.0039V38.0006H16.4835V16.0078H22.3627V18.4132C22.3627 18.838 22.626 19.2163 23.0192 19.3563C23.4114 19.5005 23.8501 19.3723 24.1081 19.038C26.7783 15.5855 31.6862 14.9953 35.0702 17.7196C36.9552 19.2372 38.0507 21.5554 38.0403 24.0052V38.0006ZM6.4263 0.0166082C6.19581 0.000133907 5.96448 -0.00108621 5.73387 0.0129472C2.77613 -0.193163 0.214667 2.08601 0.0126442 5.10358C0.00451061 5.225 0.000443914 5.34655 0.000204634 5.46821C-0.0252725 8.46016 2.33142 10.9066 5.26404 10.9326C5.38377 10.9337 5.50338 10.9306 5.62287 10.9234H5.67837C8.63049 11.1341 11.191 8.86335 11.3976 5.85151C11.6041 2.83967 9.37842 0.227355 6.4263 0.0166082ZM6.3586 8.92974C6.1323 8.95097 5.90432 8.94914 5.67837 8.924H5.62287C3.74917 9.07093 2.11361 7.64048 1.9696 5.72887C1.82559 3.81738 3.22767 2.14861 5.10137 2.00168C5.31212 1.98521 5.52384 1.98875 5.73387 2.0123C7.60614 1.83633 9.26383 3.24213 9.43643 5.15227C9.60891 7.06254 8.23099 8.75377 6.3586 8.92974Z" fill="black"/>
</svg>
