<svg width="40" height="40" viewBox="0 0 40 40" fill="none" xmlns="http://www.w3.org/2000/svg">
<path d="M37.5238 20C39.0476 19.0476 40 17.1429 40 15.2381C40 12 37.5238 9.52381 34.2857 9.52381C32.7619 9.52381 31.4286 10.0952 30.4762 11.0476V5.71429C30.4762 2.47619 28 0 24.7619 0C22.8571 0 20.9524 0.952381 20 2.47619C19.0476 0.952381 17.1429 0 15.2381 0C12 0 9.52381 2.47619 9.52381 5.71429C9.52381 7.2381 10.0952 8.57143 11.0476 9.52381H5.71429C2.47619 9.52381 0 12 0 15.2381C0 17.1429 0.952381 19.0476 2.47619 20C0.952381 20.9524 0 22.8571 0 24.7619C0 28 2.47619 30.4762 5.71429 30.4762C7.2381 30.4762 8.57143 29.9048 9.52381 28.9524V34.2857C9.52381 37.5238 12 40 15.2381 40C17.1429 40 19.0476 39.0476 20 37.5238C20.9524 39.0476 22.8571 40 24.7619 40C28 40 30.4762 37.5238 30.4762 34.2857C30.4762 32.7619 29.9048 31.4286 28.9524 30.4762H34.2857C37.5238 30.4762 40 28 40 24.7619C40 22.8571 39.0476 20.9524 37.5238 20ZM30.4762 15.2381C30.4762 13.1429 32.1905 11.4286 34.2857 11.4286C36.381 11.4286 38.0952 13.1429 38.0952 15.2381C38.0952 17.3333 36.381 19.0476 34.2857 19.0476H30.4762V15.2381ZM20.9524 5.71429C20.9524 3.61905 22.6667 1.90476 24.7619 1.90476C26.8571 1.90476 28.5714 3.61905 28.5714 5.71429V15.2381C28.5714 17.3333 26.8571 19.0476 24.7619 19.0476C22.6667 19.0476 20.9524 17.3333 20.9524 15.2381V5.71429ZM15.2381 1.90476C17.3333 1.90476 19.0476 3.61905 19.0476 5.71429V9.52381H15.2381C13.1429 9.52381 11.4286 7.80952 11.4286 5.71429C11.4286 3.61905 13.1429 1.90476 15.2381 1.90476ZM9.52381 24.7619C9.52381 26.8571 7.80952 28.5714 5.71429 28.5714C3.61905 28.5714 1.90476 26.8571 1.90476 24.7619C1.90476 22.6667 3.61905 20.9524 5.71429 20.9524H9.52381V24.7619ZM5.71429 19.0476C3.61905 19.0476 1.90476 17.3333 1.90476 15.2381C1.90476 13.1429 3.61905 11.4286 5.71429 11.4286H15.2381C17.3333 11.4286 19.0476 13.1429 19.0476 15.2381C19.0476 17.3333 17.3333 19.0476 15.2381 19.0476H5.71429ZM19.0476 34.2857C19.0476 36.381 17.3333 38.0952 15.2381 38.0952C13.1429 38.0952 11.4286 36.381 11.4286 34.2857V24.7619C11.4286 22.6667 13.1429 20.9524 15.2381 20.9524C17.3333 20.9524 19.0476 22.6667 19.0476 24.7619V34.2857ZM20 21.5238C19.619 20.9524 19.0476 20.381 18.4762 20C19.0476 19.619 19.619 19.0476 20 18.4762C20.381 19.0476 20.9524 19.619 21.5238 20C20.9524 20.381 20.381 20.9524 20 21.5238ZM24.7619 38.0952C22.6667 38.0952 20.9524 36.381 20.9524 34.2857V30.4762H24.7619C26.8571 30.4762 28.5714 32.1905 28.5714 34.2857C28.5714 36.381 26.8571 38.0952 24.7619 38.0952ZM34.2857 28.5714H24.7619C22.6667 28.5714 20.9524 26.8571 20.9524 24.7619C20.9524 22.6667 22.6667 20.9524 24.7619 20.9524H34.2857C36.381 20.9524 38.0952 22.6667 38.0952 24.7619C38.0952 26.8571 36.381 28.5714 34.2857 28.5714Z" fill="black"/>
</svg>
